<svg width="26" height="17" viewBox="0 0 26 17" fill="none" xmlns="http://www.w3.org/2000/svg">
<path d="M6.66125 9.875V9.91406H4.74719C4.51282 9.91406 4.3175 9.67969 4.3175 9.44531V7.84375C4.3175 7.57031 4.59094 7.375 4.70813 7.375H6.54407V7.64844C6.54407 8.07812 6.89563 8.3125 7.32532 8.3125H8.10657C8.53625 8.3125 8.84875 7.96094 8.84875 7.53125V6.75C8.84875 6.32031 8.73157 5.96875 8.26282 5.96875C9.005 5.38281 9.70813 5.14844 10.0206 5.03125C10.6066 2.84375 11.6613 1.4375 13.8878 0.773438C16.0753 0.109375 19.9034 0.617188 21.1925 4.09375C24.0831 4.95312 25.3722 7.6875 24.7863 10.1484C24.2784 12.2969 22.3644 14.0547 19.6691 14.0156C17.7159 16.0469 14.3566 15.9297 12.3644 14.25C9.3175 14.4062 6.97375 12.5703 6.66125 9.875ZM15.5675 10.1875C15.88 12.3359 17.8722 12.7656 19.1222 12.5312C20.6456 12.2188 21.8956 11.0469 22.2472 9.52344C22.4816 8.58594 22.3253 7.57031 21.8956 6.71094L21.4659 5.96875C21.505 6.82812 20.9972 8.3125 19.63 8.9375C22.1691 6.32031 19.7081 3.42969 16.9738 3.07812C15.0206 2.80469 13.7316 3.58594 12.5206 4.79688C14.3956 4.95312 15.9191 5.8125 16.505 7.6875C15.2941 5.77344 12.4816 5.5 11.2706 6.125C9.86438 6.82812 8.92688 8.23438 9.04407 9.79688C9.20032 11.6328 10.5675 12.4141 11.2706 12.8828C11.1144 12.0625 11.1144 10.1094 12.4425 9.25C10.9972 11.5938 13.5363 14.9141 17.7159 13.5859C16.3878 13.0391 15.1378 12.0234 15.5675 10.1875ZM5.88 6.125H4.3175C3.96594 6.125 3.6925 5.85156 3.6925 5.5V3.97656C3.6925 3.625 3.96594 3.3125 4.3175 3.3125H5.88C6.1925 3.3125 6.505 3.625 6.505 3.97656V5.5C6.505 5.85156 6.1925 6.125 5.88 6.125ZM1.27063 4.5625C1.03625 4.5625 0.880005 4.40625 0.880005 4.17188V3.11719C0.880005 2.88281 1.03625 2.6875 1.27063 2.6875H2.32532C2.55969 2.6875 2.71594 2.88281 2.71594 3.11719V4.17188C2.71594 4.40625 2.55969 4.5625 2.32532 4.5625H1.27063ZM7.4425 3.58594V2.76562C7.4425 2.57031 7.59875 2.375 7.79407 2.375H8.61438C8.80969 2.375 9.005 2.57031 9.005 2.76562V3.58594C9.005 3.78125 8.80969 3.9375 8.61438 3.9375H7.79407C7.59875 3.9375 7.4425 3.78125 7.4425 3.58594ZM3.0675 7.21875V8.19531C3.0675 8.42969 2.83313 8.625 2.59875 8.625H1.62219C1.38782 8.625 1.1925 8.42969 1.1925 8.19531V7.21875C1.1925 6.98438 1.38782 6.75 1.62219 6.75H2.59875C2.83313 6.75 3.0675 6.98438 3.0675 7.21875Z" fill="white"/>
</svg>
